<svg enable-background="new 0 0 64 64" height="512" viewBox="0 0 64 64" width="512" xmlns="http://www.w3.org/2000/svg"><g id="Layer_13"><g><path d="m44.24 5.12h-24.48c-3.033 0-5.5 2.467-5.5 5.5v42.76c0 3.033 2.467 5.5 5.5 5.5h24.48c3.033 0 5.5-2.467 5.5-5.5v-42.76c0-3.033-2.467-5.5-5.5-5.5z" fill="#f8f5e3"/><path d="m44.24 3.12h-24.48c-4.136 0-7.5 3.364-7.5 7.5v42.76c0 4.136 3.364 7.5 7.5 7.5h24.48c4.136 0 7.5-3.364 7.5-7.5v-42.76c0-4.136-3.364-7.5-7.5-7.5zm5.5 50.26c0 3.033-2.467 5.5-5.5 5.5h-24.48c-3.033 0-5.5-2.467-5.5-5.5v-42.76c0-3.033 2.467-5.5 5.5-5.5h24.48c3.033 0 5.5 2.467 5.5 5.5z"/><path d="m42.21 43.75c-1.31 0-2.42.42-3.29 1.25s-1.31 1.86-1.31 3.06c0 .89.23 1.66.7 2.27.26.34.59.62.97.84-.22.19-.41.41-.57.64-.34.52-.5 1.09-.5 1.71 0 .64.17 1.26.51 1.83s.84 1.03 1.48 1.35c.63.32 1.33.48 2.07.48 1.08 0 2-.31 2.74-.94.73-.62 1.21-1.51 1.41-2.62.02-.13-.01-.27-.08-.37-.08-.11-.19-.19-.33-.21l-1.49-.27c-.13-.02-.27.01-.38.09s-.18.2-.2.33c-.09.61-.29 1.07-.6 1.35-.59.56-1.64.55-2.19.02-.28-.27-.41-.59-.41-1 0-.53.17-.88.54-1.12.43-.28.9-.42 1.44-.42.05 0 .11.01.19.02.27.02.52-.17.55-.44l.17-1.31c.02-.17-.05-.33-.17-.44-.13-.11-.3-.15-.46-.11-.37.1-.69.15-.92.15-.56 0-1.01-.17-1.36-.52-.36-.35-.53-.79-.53-1.34 0-.59.19-1.07.58-1.46s.86-.58 1.43-.58c.47 0 .85.14 1.17.43.33.3.57.82.72 1.56.05.25.3.43.56.39l1.49-.2c.27-.03.46-.27.43-.54-.11-1.14-.57-2.08-1.37-2.8-.79-.72-1.8-1.08-2.99-1.08z"/><path d="m25.08 19c.87-.83 1.31-1.86 1.31-3.06 0-.89-.23-1.66-.7-2.27-.26-.34-.59-.62-.97-.84.22-.19.41-.41.57-.64.34-.52.5-1.09.5-1.71 0-.64-.17-1.26-.51-1.83s-.84-1.03-1.48-1.35c-.63-.32-1.33-.48-2.07-.48-1.08 0-2 .31-2.74.94-.73.62-1.21 1.51-1.41 2.62-.02.13.01.27.08.37.08.11.19.19.33.21l1.49.27c.13.02.27-.01.38-.09s.18-.2.2-.33c.09-.61.29-1.07.6-1.35.59-.56 1.64-.55 2.19-.02.28.27.41.59.41 1 0 .53-.17.88-.54 1.12-.43.28-.9.42-1.44.42-.05 0-.11-.01-.19-.02-.28-.02-.52.17-.55.44l-.17 1.31c-.02.17.05.33.17.44.13.11.3.15.46.11.37-.1.69-.15.92-.15.56 0 1.01.17 1.36.52.36.35.53.79.53 1.34 0 .59-.19 1.07-.58 1.46s-.86.58-1.43.58c-.47 0-.85-.14-1.17-.43-.33-.3-.57-.82-.72-1.56-.05-.25-.3-.43-.56-.39l-1.49.2c-.27.03-.46.27-.43.54.11 1.14.57 2.08 1.37 2.8.79.72 1.8 1.08 2.99 1.08 1.31 0 2.42-.42 3.29-1.25z"/><path d="m41.13 32.47c1.34-2.23 1.54-4.7.55-6.95-1.09-2.48-3.45-4.14-5.87-4.14-1.43 0-2.74.55-3.8 1.61-1.07-1.06-2.38-1.61-3.81-1.61-2.42 0-4.78 1.66-5.88 4.14-.99 2.26-.79 4.73.55 6.95.95 1.57 2.25 2.56 3.52 3.52 1.78 1.32 3.31 2.47 4.01 5.34.18.76.84 1.29 1.6 1.29.77 0 1.43-.52 1.6-1.28.7-2.87 2.25-4.03 4.05-5.38 1.18-.89 2.52-1.9 3.48-3.49z" fill="#ed1c24"/></g></g></svg>