<svg enable-background="new 0 0 64 64" height="512" viewBox="0 0 64 64" width="512" xmlns="http://www.w3.org/2000/svg"><g id="Layer_41"><g><path d="m44.24 5.12h-24.48c-3.033 0-5.5 2.468-5.5 5.5v42.76c0 3.032 2.467 5.5 5.5 5.5h24.48c3.033 0 5.5-2.468 5.5-5.5v-42.76c0-3.032-2.467-5.5-5.5-5.5z" fill="#f8f5e3"/><path d="m44.24 3.12h-24.48c-4.136 0-7.5 3.364-7.5 7.5v42.76c0 4.136 3.364 7.5 7.5 7.5h24.48c4.136 0 7.5-3.364 7.5-7.5v-42.76c0-4.136-3.364-7.5-7.5-7.5zm5.5 50.26c0 3.032-2.467 5.5-5.5 5.5h-24.48c-3.033 0-5.5-2.468-5.5-5.5v-42.76c0-3.032 2.467-5.5 5.5-5.5h24.48c3.033 0 5.5 2.468 5.5 5.5z"/><g fill="#ed1c24"><path d="m46.54 52.34c-.44.16-.93.4-1.47.72-.18.101-.34.21-.5.311v-7.371c0-.28-.22-.5-.5-.5h-1.32c-.27 0-.5.22-.5.5v10.78c0 .279.23.5.5.5h.85c.19 0 .37-.11.45-.28.2-.4.56-.83 1.06-1.28.51-.46 1.12-.859 1.81-1.18.18-.08.29-.26.29-.46v-1.27c0-.159-.08-.319-.22-.409-.13-.091-.3-.121-.45-.061z"/><path d="m35.88 45.32c-.9 0-1.67.25-2.27.739-.59.48-1.03 1.16-1.32 2.03-.28.82-.41 1.9-.41 3.2 0 1.11.08 2 .25 2.67.18.67.42 1.26.73 1.74.33.51.76.899 1.27 1.17.5.27 1.09.41 1.75.41.89 0 1.65-.25 2.26-.74.58-.48 1.03-1.16 1.32-2.021.28-.829.42-1.89.42-3.229 0-2.15-.39-3.68-1.17-4.67-.69-.869-1.64-1.299-2.83-1.299zm1.05 9.31c-.26.38-.6.561-1.04.561-.45 0-.81-.21-1.13-.66-.24-.34-.53-1.181-.53-3.24 0-2.04.29-2.88.53-3.22.32-.46.67-.67 1.12-.67.44 0 .8.21 1.12.659.24.341.52 1.181.52 3.23 0 2.06-.32 2.96-.59 3.34z"/><path d="m21.75 7.22c0-.279-.23-.5-.5-.5h-.85c-.19 0-.37.11-.45.28-.2.4-.56.83-1.06 1.28-.51.46-1.12.859-1.81 1.18-.18.08-.29.26-.29.46v1.271c0 .159.08.319.22.409.13.091.3.12.45.061.44-.16.93-.4 1.47-.72.18-.101.34-.21.5-.311v7.37c0 .28.22.5.5.5h1.32c.27 0 .5-.22.5-.5z"/><path d="m28.12 18.68c.9 0 1.67-.25 2.27-.739.59-.48 1.03-1.16 1.32-2.03.28-.82.41-1.9.41-3.2 0-1.11-.08-2-.25-2.67-.18-.67-.42-1.26-.73-1.74-.33-.51-.76-.899-1.27-1.17-.5-.27-1.09-.41-1.75-.41-.89 0-1.65.25-2.26.74-.58.48-1.03 1.16-1.32 2.021-.28.829-.42 1.89-.42 3.229 0 2.15.39 3.68 1.17 4.67.69.869 1.64 1.299 2.83 1.299zm-1.05-9.31c.26-.38.6-.561 1.04-.561.45 0 .81.21 1.13.66.24.34.53 1.181.53 3.24 0 2.04-.29 2.88-.53 3.22-.64.91-1.6.91-2.24.011-.24-.341-.52-1.181-.52-3.23 0-2.06.32-2.96.59-3.34z"/><path d="m41.68 25.52c-1.09-2.479-3.45-4.14-5.87-4.14-1.43 0-2.74.55-3.8 1.61-1.07-1.061-2.38-1.61-3.81-1.61-2.42 0-4.78 1.66-5.88 4.14-.99 2.261-.79 4.73.55 6.95.95 1.57 2.25 2.55 3.52 3.521 1.78 1.319 3.31 2.47 4.01 5.34.18.76.84 1.29 1.6 1.29.77 0 1.43-.521 1.6-1.28.7-2.87 2.25-4.03 4.05-5.38 1.18-.89 2.52-1.9 3.48-3.49 1.34-2.231 1.54-4.701.55-6.951z"/></g></g></g></svg>