<svg enable-background="new 0 0 64 64" height="512" viewBox="0 0 64 64" width="512" xmlns="http://www.w3.org/2000/svg"><g id="Layer_53"><g><path d="m44.24 5.12h-24.48c-3.033 0-5.5 2.468-5.5 5.5v42.76c0 3.032 2.467 5.5 5.5 5.5h24.48c3.032 0 5.5-2.468 5.5-5.5v-42.76c0-3.032-2.468-5.5-5.5-5.5z" fill="#f8f5e3"/><path d="m44.24 3.12h-24.48c-4.136 0-7.5 3.364-7.5 7.5v42.76c0 4.136 3.364 7.5 7.5 7.5h24.48c4.136 0 7.5-3.364 7.5-7.5v-42.76c0-4.136-3.364-7.5-7.5-7.5zm5.5 50.26c0 3.032-2.468 5.5-5.5 5.5h-24.48c-3.033 0-5.5-2.468-5.5-5.5v-42.76c0-3.032 2.467-5.5 5.5-5.5h24.48c3.032 0 5.5 2.468 5.5 5.5z"/><g fill="#ed1c24"><path d="m46.87 43.96h-1.61c-.279 0-.5.23-.5.5v4.01l-1.43 1.391-3.99-5.681c-.09-.14-.25-.22-.41-.22h-2.12c-.189 0-.369.11-.449.28-.091.17-.07.37.04.52l5.069 6.891-4.79 4.619c-.14.15-.189.36-.109.551.069.189.26.31.46.31h2.18c.14 0 .26-.05.36-.14l5.189-5.181v4.82c0 .28.221.5.5.5h1.61c.27 0 .5-.22.5-.5v-12.17c0-.27-.23-.5-.5-.5z"/><path d="m25.07 20.03h2.12c.19 0 .37-.101.45-.271.09-.17.07-.37-.04-.52l-5.07-6.891 4.79-4.63c.14-.14.19-.35.11-.54-.07-.189-.26-.31-.46-.31h-2.18c-.14 0-.26.05-.36.14l-5.19 5.181v-4.819c0-.28-.22-.5-.5-.5h-1.61c-.27 0-.5.22-.5.5v12.16c0 .279.23.5.5.5h1.61c.28 0 .5-.221.5-.5v-4l1.43-1.391 3.99 5.681c.09.14.25.21.41.21z"/><path d="m41.13 32.47c1.34-2.229 1.54-4.7.55-6.95-1.1-2.479-3.449-4.14-5.87-4.14-1.43 0-2.739.55-3.8 1.61-1.07-1.061-2.38-1.61-3.81-1.61-2.42 0-4.78 1.66-5.88 4.14-.99 2.261-.79 4.73.55 6.95.95 1.57 2.25 2.55 3.52 3.521 1.78 1.319 3.31 2.47 4.01 5.34.18.76.84 1.29 1.6 1.29.77 0 1.43-.521 1.61-1.28.689-2.87 2.239-4.03 4.04-5.38 1.18-.891 2.52-1.901 3.48-3.491z"/></g></g></g></svg>